# xmcd
#
# Track frame offsets:
#	150
#	10947
#	23800
#	39230
#	52420
#	66068
#	84640
#	99203
#	114400
#	129278
#
# Disc length: 1920 seconds
# Revision: 8
# Processed by: cddbd v1.5.2PL0 Copyright (c) Steve Scherf et al.
# Submitted via: dBpowerAMP V12.0
#
DISCID=76077e0a
DTITLE=Tracy Byrd - No Ordinary Man
DYEAR=1994
DGENRE=Country
TTITLE0=The First Step
TTITLE1=Lifestyles of the Not So Rich and Famous
TTITLE2=No Ordinary Man
TTITLE3=Anybody Else's Heart But Mine
TTITLE4=Watermelon Crawl
TTITLE5=The Keeper of the Stars
TTITLE6=You Never Know Just How Good You've Got It
TTITLE7=Redneck Roses
TTITLE8=Right About Now
TTITLE9=Pink Flamingos
EXTD=
EXTT0=
EXTT1=
EXTT2=
EXTT3=
EXTT4=
EXTT5=
EXTT6=
EXTT7=
EXTT8=
EXTT9=
PLAYORDER=
